<?xml version="1.0" encoding="UTF-8"?>
<!DOCTYPE svg PUBLIC "-//W3C//DTD SVG 1.1//EN" "http://www.w3.org/Graphics/SVG/1.1/DTD/svg11.dtd">
<svg xmlns="http://www.w3.org/2000/svg" version="1.1" width="500px" height="500px" style="shape-rendering:geometricPrecision; text-rendering:geometricPrecision; image-rendering:optimizeQuality; fill-rule:evenodd; clip-rule:evenodd" xmlns:xlink="http://www.w3.org/1999/xlink">
<g><path style="opacity:0.939" fill="#252525" d="M 264.5,218.5 C 269.622,220.384 269.788,222.718 265,225.5C 263.115,225.138 262.281,223.971 262.5,222C 262.862,220.566 263.528,219.399 264.5,218.5 Z"/></g>
<g><path style="opacity:0.933" fill="#232323" d="M 154.5,251.5 C 154.44,250.957 154.107,250.624 153.5,250.5C 152.509,254.445 152.176,258.445 152.5,262.5C 151.5,262.5 150.5,262.5 149.5,262.5C 149.5,251.167 149.5,239.833 149.5,228.5C 151.451,228.227 152.951,228.893 154,230.5C 161.714,225.305 168.381,226.639 174,234.5C 177.134,245.578 173.134,252.245 162,254.5C 159.044,254.432 156.544,253.432 154.5,251.5 Z M 164.5,232.5 C 170.713,237.532 171.047,243.032 165.5,249C 160.749,250.474 157.082,249.14 154.5,245C 152.789,240.363 153.789,236.529 157.5,233.5C 159.764,232.781 162.097,232.448 164.5,232.5 Z"/></g>
<g><path style="opacity:0.937" fill="#2e2e2e" d="M 198.5,226.5 C 212.205,229.877 215.871,237.877 209.5,250.5C 202.998,255.643 196.331,255.81 189.5,251C 184.864,245.204 184.364,239.038 188,232.5C 191.063,229.557 194.563,227.557 198.5,226.5 Z M 206.5,236.5 C 207.833,239.5 207.833,242.5 206.5,245.5C 203.751,249.171 200.084,250.337 195.5,249C 191.057,244.73 190.39,239.897 193.5,234.5C 198.523,231.393 202.857,232.06 206.5,236.5 Z"/></g>
<g><path style="opacity:0.94" fill="#303030" d="M 235.5,226.5 C 248.053,228.265 252.553,235.265 249,247.5C 245.061,253.373 239.561,255.54 232.5,254C 226.547,251.775 223.547,247.442 223.5,241C 223.724,232.95 227.724,228.116 235.5,226.5 Z M 236.5,231.5 C 246.251,235.564 247.585,241.397 240.5,249C 233.846,250.349 229.846,247.683 228.5,241C 228.978,235.825 231.644,232.658 236.5,231.5 Z"/></g>
<g><path style="opacity:0.925" fill="#2b2b2b" d="M 302.5,236.5 C 302.173,241.214 302.507,245.88 303.5,250.5C 304.107,250.376 304.44,250.043 304.5,249.5C 306.314,248.26 307.314,248.927 307.5,251.5C 304.342,255.424 301.009,255.424 297.5,251.5C 293.527,254.538 289.193,255.205 284.5,253.5C 283.738,251.738 282.404,250.738 280.5,250.5C 278.979,247.295 279.312,244.295 281.5,241.5C 286.266,238.076 291.599,236.743 297.5,237.5C 297.413,233.759 295.413,231.759 291.5,231.5C 288.039,232.551 285.373,234.551 283.5,237.5C 282.069,237.023 280.736,236.357 279.5,235.5C 281.827,230.014 285.994,227.014 292,226.5C 294.447,227.406 296.947,228.239 299.5,229C 301.747,230.995 302.747,233.495 302.5,236.5 Z M 297.5,245.5 C 295.833,246.5 294.5,247.833 293.5,249.5C 291.143,249.663 288.81,249.497 286.5,249C 283.871,246.211 284.538,244.211 288.5,243C 291.426,242.782 294.26,242.282 297,241.5C 297.49,242.793 297.657,244.127 297.5,245.5 Z"/></g>
<g><path style="opacity:0.852" fill="#050505" d="M 262.5,229.5 C 263.833,229.5 265.167,229.5 266.5,229.5C 266.74,240.531 266.407,251.531 265.5,262.5C 264.292,263.234 262.959,263.567 261.5,263.5C 259.447,263.598 257.78,262.931 256.5,261.5C 258.887,261.088 260.887,260.088 262.5,258.5C 262.5,248.833 262.5,239.167 262.5,229.5 Z"/></g>
<g><path style="opacity:0.376" fill="#686868" d="M 262.5,229.5 C 263.919,228.549 265.585,228.216 267.5,228.5C 267.666,238.839 267.5,249.172 267,259.5C 266.768,260.737 266.268,261.737 265.5,262.5C 266.407,251.531 266.74,240.531 266.5,229.5C 265.167,229.5 263.833,229.5 262.5,229.5 Z"/></g>
<g><path style="opacity:0.059" fill="#a5a5a5" d="M 164.5,232.5 C 162.097,232.448 159.764,232.781 157.5,233.5C 158.312,232.007 159.645,231.34 161.5,231.5C 162.726,231.52 163.726,231.853 164.5,232.5 Z"/></g>
<g><path style="opacity:0.008" fill="#888888" d="M 302.5,236.5 C 303.167,240.833 303.833,245.167 304.5,249.5C 304.44,250.043 304.107,250.376 303.5,250.5C 302.507,245.88 302.173,241.214 302.5,236.5 Z"/></g>
<g><path style="opacity:0.149" fill="#7a7a7a" d="M 206.5,236.5 C 208.026,237.492 208.693,238.992 208.5,241C 208.693,243.008 208.026,244.508 206.5,245.5C 207.833,242.5 207.833,239.5 206.5,236.5 Z"/></g>
<g><path style="opacity:0.231" fill="#9b9b9b" d="M 297.5,245.5 C 297.167,247.833 295.833,249.167 293.5,249.5C 294.5,247.833 295.833,246.5 297.5,245.5 Z"/></g>
<g><path style="opacity:0.412" fill="#8e8e8e" d="M 280.5,250.5 C 282.404,250.738 283.738,251.738 284.5,253.5C 282.596,253.262 281.262,252.262 280.5,250.5 Z"/></g>
<g><path style="opacity:0.486" fill="#868685" d="M 149.5,228.5 C 149.5,239.833 149.5,251.167 149.5,262.5C 150.5,262.5 151.5,262.5 152.5,262.5C 152.176,258.445 152.509,254.445 153.5,250.5C 154.107,250.624 154.44,250.957 154.5,251.5C 153.517,255.298 153.183,259.298 153.5,263.5C 151.833,263.5 150.167,263.5 148.5,263.5C 148.172,251.655 148.505,239.988 149.5,228.5 Z"/></g>
<g><path style="opacity:0.357" fill="#656565" d="M 262.5,258.5 C 260.887,260.088 258.887,261.088 256.5,261.5C 256.351,260.448 256.517,259.448 257,258.5C 258.776,259.536 260.609,259.536 262.5,258.5 Z"/></g>
<g><path style="opacity:0.643" fill="#dd9456" d="M 207.5,260.5 C 207.5,260.833 207.5,261.167 207.5,261.5C 198.833,261.5 190.167,261.5 181.5,261.5C 177.833,261.5 174.167,261.5 170.5,261.5C 166.167,261.5 161.833,261.5 157.5,261.5C 157.5,262.833 157.5,264.167 157.5,265.5C 156.549,264.081 156.216,262.415 156.5,260.5C 173.5,260.5 190.5,260.5 207.5,260.5 Z"/></g>
<g><path style="opacity:0.629" fill="#cc5c7c" d="M 207.5,261.5 C 207.5,261.167 207.5,260.833 207.5,260.5C 222.5,260.5 237.5,260.5 252.5,260.5C 252.784,262.415 252.451,264.081 251.5,265.5C 251.768,263.901 251.434,262.568 250.5,261.5C 244.833,261.5 239.167,261.5 233.5,261.5C 227.833,261.5 222.167,261.5 216.5,261.5C 213.5,261.5 210.5,261.5 207.5,261.5 Z"/></g>
<g><path style="opacity:0.247" fill="#908fde" d="M 294.5,261.5 C 294.5,261.167 294.5,260.833 294.5,260.5C 305.167,260.5 315.833,260.5 326.5,260.5C 326.5,262.5 326.5,264.5 326.5,266.5C 314.181,265.747 301.848,265.414 289.5,265.5C 290.209,264.596 291.209,264.263 292.5,264.5C 298.833,264.5 305.167,264.5 311.5,264.5C 315.884,264.826 320.217,264.492 324.5,263.5C 318.977,261.789 313.31,261.122 307.5,261.5C 303.167,261.5 298.833,261.5 294.5,261.5 Z"/></g>
<g><path style="opacity:1" fill="#734cdb" d="M 293.5,261.5 C 293.833,261.5 294.167,261.5 294.5,261.5C 298.833,261.5 303.167,261.5 307.5,261.5C 309.292,262.309 311.292,262.809 313.5,263C 312.584,263.278 311.918,263.778 311.5,264.5C 305.167,264.5 298.833,264.5 292.5,264.5C 292.557,263.391 292.89,262.391 293.5,261.5 Z"/></g>
<g><path style="opacity:0.988" fill="#f9ac20" d="M 170.5,261.5 C 169.045,263.134 167.378,264.468 165.5,265.5C 162.833,265.5 160.167,265.5 157.5,265.5C 157.5,264.167 157.5,262.833 157.5,261.5C 161.833,261.5 166.167,261.5 170.5,261.5 Z"/></g>
<g><path style="opacity:0.992" fill="#f28124" d="M 170.5,261.5 C 174.167,261.5 177.833,261.5 181.5,261.5C 182.6,262.558 183.934,263.392 185.5,264C 189.821,264.499 194.154,264.666 198.5,264.5C 198.5,264.833 198.5,265.167 198.5,265.5C 187.5,265.5 176.5,265.5 165.5,265.5C 167.378,264.468 169.045,263.134 170.5,261.5 Z"/></g>
<g><path style="opacity:0.988" fill="#ef5828" d="M 181.5,261.5 C 190.167,261.5 198.833,261.5 207.5,261.5C 208.952,262.302 210.618,262.802 212.5,263C 207.934,264.309 203.267,264.809 198.5,264.5C 194.154,264.666 189.821,264.499 185.5,264C 183.934,263.392 182.6,262.558 181.5,261.5 Z"/></g>
<g><path style="opacity:0.988" fill="#e64a74" d="M 216.5,261.5 C 222.167,261.5 227.833,261.5 233.5,261.5C 232.391,262.29 231.058,262.79 229.5,263C 236.426,264.339 243.426,264.839 250.5,264.5C 250.5,263.5 250.5,262.5 250.5,261.5C 251.434,262.568 251.768,263.901 251.5,265.5C 238.5,265.5 225.5,265.5 212.5,265.5C 214.042,264.837 215.709,264.17 217.5,263.5C 217.137,262.817 216.804,262.15 216.5,261.5 Z"/></g>
<g><path style="opacity:1" fill="#f0226a" d="M 233.5,261.5 C 239.167,261.5 244.833,261.5 250.5,261.5C 250.5,262.5 250.5,263.5 250.5,264.5C 243.426,264.839 236.426,264.339 229.5,263C 231.058,262.79 232.391,262.29 233.5,261.5 Z"/></g>
<g><path style="opacity:0.027" fill="#9f9b9b" d="M 256.5,261.5 C 257.78,262.931 259.447,263.598 261.5,263.5C 259.395,264.819 257.395,264.486 255.5,262.5C 255.624,261.893 255.957,261.56 256.5,261.5 Z"/></g>
<g><path style="opacity:0.373" fill="#bc5894" d="M 294.5,260.5 C 294.5,260.833 294.5,261.167 294.5,261.5C 294.167,261.5 293.833,261.5 293.5,261.5C 291.5,261.5 289.5,261.5 287.5,261.5C 285.5,261.5 283.5,261.5 281.5,261.5C 281.5,262.833 281.5,264.167 281.5,265.5C 280.549,264.081 280.216,262.415 280.5,260.5C 285.167,260.5 289.833,260.5 294.5,260.5 Z"/></g>
<g><path style="opacity:0.992" fill="#db167e" d="M 287.5,261.5 C 287.5,262.833 287.5,264.167 287.5,265.5C 285.5,265.5 283.5,265.5 281.5,265.5C 281.5,264.167 281.5,262.833 281.5,261.5C 283.5,261.5 285.5,261.5 287.5,261.5 Z"/></g>
<g><path style="opacity:0.992" fill="#b026a9" d="M 287.5,261.5 C 289.5,261.5 291.5,261.5 293.5,261.5C 292.89,262.391 292.557,263.391 292.5,264.5C 291.209,264.263 290.209,264.596 289.5,265.5C 288.833,265.5 288.167,265.5 287.5,265.5C 287.5,264.167 287.5,262.833 287.5,261.5 Z"/></g>
<g><path style="opacity:0.996" fill="#526fee" d="M 307.5,261.5 C 313.31,261.122 318.977,261.789 324.5,263.5C 320.217,264.492 315.884,264.826 311.5,264.5C 311.918,263.778 312.584,263.278 313.5,263C 311.292,262.809 309.292,262.309 307.5,261.5 Z"/></g>
<g><path style="opacity:0.418" fill="#e15f55" d="M 207.5,261.5 C 210.5,261.5 213.5,261.5 216.5,261.5C 216.804,262.15 217.137,262.817 217.5,263.5C 215.709,264.17 214.042,264.837 212.5,265.5C 207.833,265.5 203.167,265.5 198.5,265.5C 198.5,265.167 198.5,264.833 198.5,264.5C 203.267,264.809 207.934,264.309 212.5,263C 210.618,262.802 208.952,262.302 207.5,261.5 Z"/></g>
</svg>
