<?xml version="1.0" encoding="UTF-8"?>
<!DOCTYPE svg PUBLIC "-//W3C//DTD SVG 1.1//EN" "http://www.w3.org/Graphics/SVG/1.1/DTD/svg11.dtd">
<svg xmlns="http://www.w3.org/2000/svg" version="1.1" width="500px" height="500px" style="shape-rendering:geometricPrecision; text-rendering:geometricPrecision; image-rendering:optimizeQuality; fill-rule:evenodd; clip-rule:evenodd" xmlns:xlink="http://www.w3.org/1999/xlink">
<g><path style="opacity:0.895" fill="#d9d9d9" d="M 263.5,218.5 C 268.478,218.952 269.478,221.119 266.5,225C 265.216,225.684 264.049,225.517 263,224.5C 262.322,222.402 262.489,220.402 263.5,218.5 Z"/></g>
<g><path style="opacity:0.922" fill="#dbdbdb" d="M 174.5,238.5 C 172.766,239.562 171.099,239.562 169.5,238.5C 165.766,231.184 160.932,230.184 155,235.5C 154.023,237.74 153.523,240.073 153.5,242.5C 152.249,240.119 150.583,238.119 148.5,236.5C 148.5,233.833 148.5,231.167 148.5,228.5C 150.722,228.178 152.556,228.845 154,230.5C 161.182,225.94 167.516,226.94 173,233.5C 174.009,235.025 174.509,236.692 174.5,238.5 Z"/></g>
<g><path style="opacity:0.875" fill="#dcdcdc" d="M 245.5,230.5 C 241.155,230.298 240.488,231.631 243.5,234.5C 241.417,233.412 239.251,232.412 237,231.5C 234.779,232.406 232.612,233.406 230.5,234.5C 229.175,233.047 228.342,233.381 228,235.5C 226.961,234.756 226.461,233.756 226.5,232.5C 226.937,230.926 227.937,229.759 229.5,229C 235.162,225.915 240.496,226.415 245.5,230.5 Z"/></g>
<g><path style="opacity:0.867" fill="#dcdcdc" d="M 299.5,229.5 C 299.607,231.379 299.107,231.712 298,230.5C 297.005,231.066 296.172,231.733 295.5,232.5C 290.428,231.364 286.428,233.03 283.5,237.5C 281.833,237.167 280.833,236.167 280.5,234.5C 282.491,229.319 286.324,226.986 292,227.5C 294.821,227.408 297.321,228.074 299.5,229.5 Z"/></g>
<g><path style="opacity:0.925" fill="#dadada" d="M 245.5,230.5 C 247.173,231.343 248.34,232.676 249,234.5C 252.745,248.088 247.579,254.588 233.5,254C 232.263,253.768 231.263,253.268 230.5,252.5C 230.918,251.778 231.584,251.278 232.5,251C 231.288,249.893 231.621,249.393 233.5,249.5C 244.045,249.423 247.378,244.423 243.5,234.5C 240.488,231.631 241.155,230.298 245.5,230.5 Z"/></g>
<g><path style="opacity:0.964" fill="#d9d9d9" d="M 263.5,227.5 C 264.822,227.33 265.989,227.663 267,228.5C 267.667,238.833 267.667,249.167 267,259.5C 265.641,262.699 263.141,264.365 259.5,264.5C 257.792,264.297 256.459,263.464 255.5,262C 257.009,260.076 259.009,258.909 261.5,258.5C 262.189,248.107 262.856,237.773 263.5,227.5 Z"/></g>
<g><path style="opacity:0.873" fill="#dedede" d="M 206.5,229.5 C 205.127,229.343 203.793,229.51 202.5,230C 203.167,230.333 203.833,230.667 204.5,231C 203.584,231.278 202.918,231.778 202.5,232.5C 194.064,231.783 190.564,235.783 192,244.5C 192.997,246.323 194.164,247.99 195.5,249.5C 195.844,250.683 195.178,251.516 193.5,252C 194.056,252.383 194.389,252.883 194.5,253.5C 189.814,252.313 186.981,249.313 186,244.5C 185.039,231.886 190.872,226.386 203.5,228C 204.737,228.232 205.737,228.732 206.5,229.5 Z"/></g>
<g><path style="opacity:0.869" fill="#dddddd" d="M 299.5,229.5 C 301.694,231.221 302.861,233.555 303,236.5C 303.333,240.833 303.667,245.167 304,249.5C 306.125,248.149 307.292,248.815 307.5,251.5C 307.182,252.647 306.516,253.481 305.5,254C 303.613,254.78 301.946,254.613 300.5,253.5C 302.681,253.716 304.347,252.883 305.5,251C 303.075,250.707 301.242,249.541 300,247.5C 297.913,248.397 295.746,249.064 293.5,249.5C 294.731,248.282 295.898,246.949 297,245.5C 297.667,244.167 297.667,242.833 297,241.5C 294.26,242.282 291.426,242.782 288.5,243C 286.249,243.748 284.916,245.248 284.5,247.5C 283.122,248.545 282.122,249.878 281.5,251.5C 278.264,246.453 279.264,242.287 284.5,239C 288.751,237.805 293.085,237.305 297.5,237.5C 297.608,235.486 296.942,233.82 295.5,232.5C 296.172,231.733 297.005,231.066 298,230.5C 299.107,231.712 299.607,231.379 299.5,229.5 Z M 293.5,249.5 C 290.162,249.935 287.162,249.268 284.5,247.5C 284.916,245.248 286.249,243.748 288.5,243C 291.426,242.782 294.26,242.282 297,241.5C 297.667,242.833 297.667,244.167 297,245.5C 295.898,246.949 294.731,248.282 293.5,249.5 Z"/></g>
<g><path style="opacity:0.729" fill="#d8d8d8" d="M 148.5,236.5 C 150.583,238.119 152.249,240.119 153.5,242.5C 154.064,246.064 156.064,248.397 159.5,249.5C 160.952,250.302 162.618,250.802 164.5,251C 163.833,251.333 163.167,251.667 162.5,252C 163.737,252.232 164.737,252.732 165.5,253.5C 161.444,255.036 157.611,254.369 154,251.5C 154.278,255.139 154.278,258.806 154,262.5C 152.301,263.406 150.467,263.739 148.5,263.5C 148.5,254.5 148.5,245.5 148.5,236.5 Z"/></g>
<g><path style="opacity:0.852" fill="#dedede" d="M 169.5,238.5 C 171.099,239.562 172.766,239.562 174.5,238.5C 175.895,246.032 172.895,251.032 165.5,253.5C 164.737,252.732 163.737,252.232 162.5,252C 163.167,251.667 163.833,251.333 164.5,251C 162.618,250.802 160.952,250.302 159.5,249.5C 166.651,249.348 169.984,245.681 169.5,238.5 Z"/></g>
<g><path style="opacity:0.91" fill="#dedede" d="M 226.5,232.5 C 226.461,233.756 226.961,234.756 228,235.5C 228.342,233.381 229.175,233.047 230.5,234.5C 227.278,240.389 228.278,245.389 233.5,249.5C 231.621,249.393 231.288,249.893 232.5,251C 231.584,251.278 230.918,251.778 230.5,252.5C 226.996,251.545 224.829,249.211 224,245.5C 223.333,242.5 223.333,239.5 224,236.5C 224.2,234.68 225.034,233.347 226.5,232.5 Z"/></g>
<g><path style="opacity:0.833" fill="#dbdbdb" d="M 206.5,229.5 C 212.208,233.685 214.041,239.351 212,246.5C 208.082,253.639 202.248,255.973 194.5,253.5C 194.389,252.883 194.056,252.383 193.5,252C 195.178,251.516 195.844,250.683 195.5,249.5C 204.143,250.688 207.977,247.022 207,238.5C 206.401,235.746 204.901,233.746 202.5,232.5C 202.918,231.778 203.584,231.278 204.5,231C 203.833,230.667 203.167,230.333 202.5,230C 203.793,229.51 205.127,229.343 206.5,229.5 Z"/></g>
<g><path style="opacity:0.894" fill="#dadada" d="M 284.5,247.5 C 287.162,249.268 290.162,249.935 293.5,249.5C 295.746,249.064 297.913,248.397 300,247.5C 301.242,249.541 303.075,250.707 305.5,251C 304.347,252.883 302.681,253.716 300.5,253.5C 299.518,252.859 298.518,252.193 297.5,251.5C 292.06,255.432 286.727,255.432 281.5,251.5C 282.122,249.878 283.122,248.545 284.5,247.5 Z"/></g>
<g><path style="opacity:0.241" fill="#8f9adb" d="M 294.5,261.5 C 294.5,261.167 294.5,260.833 294.5,260.5C 305.167,260.5 315.833,260.5 326.5,260.5C 326.5,262.5 326.5,264.5 326.5,266.5C 322.958,266.813 319.625,266.479 316.5,265.5C 319.5,265.5 322.5,265.5 325.5,265.5C 325.5,264.167 325.5,262.833 325.5,261.5C 321.833,261.5 318.167,261.5 314.5,261.5C 310.833,261.5 307.167,261.5 303.5,261.5C 300.5,261.5 297.5,261.5 294.5,261.5 Z"/></g>
<g><path style="opacity:0.992" fill="#f36816" d="M 182.5,261.5 C 185.5,261.5 188.5,261.5 191.5,261.5C 193.607,262.468 195.941,262.802 198.5,262.5C 198.5,263.5 198.5,264.5 198.5,265.5C 194.167,265.5 189.833,265.5 185.5,265.5C 182.88,265.009 180.546,263.842 178.5,262C 179.793,261.51 181.127,261.343 182.5,261.5 Z"/></g>
<g><path style="opacity:1" fill="#ba28a6" d="M 286.5,261.5 C 288.5,261.5 290.5,261.5 292.5,261.5C 292.557,262.609 292.89,263.609 293.5,264.5C 292.508,264.328 291.842,264.662 291.5,265.5C 289.833,265.5 288.167,265.5 286.5,265.5C 287.833,264.167 287.833,262.833 286.5,261.5 Z"/></g>
<g><path style="opacity:1" fill="#754be2" d="M 292.5,261.5 C 293.167,261.5 293.833,261.5 294.5,261.5C 297.5,261.5 300.5,261.5 303.5,261.5C 306.159,261.917 308.492,262.917 310.5,264.5C 304.833,264.5 299.167,264.5 293.5,264.5C 292.89,263.609 292.557,262.609 292.5,261.5 Z"/></g>
<g><path style="opacity:0.392" fill="#e5b65d" d="M 175.5,260.5 C 173.052,261.473 170.385,261.806 167.5,261.5C 164.167,261.5 160.833,261.5 157.5,261.5C 157.5,262.833 157.5,264.167 157.5,265.5C 156.549,264.081 156.216,262.415 156.5,260.5C 162.833,260.5 169.167,260.5 175.5,260.5 Z"/></g>
<g><path style="opacity:0.988" fill="#faad19" d="M 167.5,261.5 C 167.918,262.222 168.584,262.722 169.5,263C 167.498,264.019 165.498,264.852 163.5,265.5C 161.5,265.5 159.5,265.5 157.5,265.5C 157.5,264.167 157.5,262.833 157.5,261.5C 160.833,261.5 164.167,261.5 167.5,261.5 Z"/></g>
<g><path style="opacity:0.988" fill="#f28c22" d="M 175.5,260.5 C 177.833,260.5 180.167,260.5 182.5,260.5C 182.5,260.833 182.5,261.167 182.5,261.5C 181.127,261.343 179.793,261.51 178.5,262C 180.546,263.842 182.88,265.009 185.5,265.5C 178.167,265.5 170.833,265.5 163.5,265.5C 165.498,264.852 167.498,264.019 169.5,263C 168.584,262.722 167.918,262.222 167.5,261.5C 170.385,261.806 173.052,261.473 175.5,260.5 Z"/></g>
<g><path style="opacity:0.988" fill="#eb563e" d="M 191.5,261.5 C 199.174,261.334 206.841,261.5 214.5,262C 216.119,262.236 217.119,263.069 217.5,264.5C 215.901,264.232 214.568,264.566 213.5,265.5C 208.5,265.5 203.5,265.5 198.5,265.5C 198.5,264.5 198.5,263.5 198.5,262.5C 195.941,262.802 193.607,262.468 191.5,261.5 Z"/></g>
<g><path style="opacity:0.992" fill="#e4466e" d="M 182.5,261.5 C 182.5,261.167 182.5,260.833 182.5,260.5C 205.5,260.5 228.5,260.5 251.5,260.5C 251.5,261.833 251.5,263.167 251.5,264.5C 240.167,264.5 228.833,264.5 217.5,264.5C 217.119,263.069 216.119,262.236 214.5,262C 206.841,261.5 199.174,261.334 191.5,261.5C 188.5,261.5 185.5,261.5 182.5,261.5 Z"/></g>
<g><path style="opacity:0.353" fill="#c36099" d="M 294.5,260.5 C 294.5,260.833 294.5,261.167 294.5,261.5C 293.833,261.5 293.167,261.5 292.5,261.5C 290.5,261.5 288.5,261.5 286.5,261.5C 284.833,261.5 283.167,261.5 281.5,261.5C 281.5,262.833 281.5,264.167 281.5,265.5C 280.549,264.081 280.216,262.415 280.5,260.5C 285.167,260.5 289.833,260.5 294.5,260.5 Z"/></g>
<g><path style="opacity:0.988" fill="#e2147a" d="M 286.5,261.5 C 287.833,262.833 287.833,264.167 286.5,265.5C 284.833,265.5 283.167,265.5 281.5,265.5C 281.5,264.167 281.5,262.833 281.5,261.5C 283.167,261.5 284.833,261.5 286.5,261.5 Z"/></g>
<g><path style="opacity:0.976" fill="#5863f1" d="M 303.5,261.5 C 307.167,261.5 310.833,261.5 314.5,261.5C 316.042,262.163 317.709,262.83 319.5,263.5C 316.572,264.484 313.572,264.817 310.5,264.5C 308.492,262.917 306.159,261.917 303.5,261.5 Z"/></g>
<g><path style="opacity:0.449" fill="#e85f8a" d="M 251.5,260.5 C 252.451,261.919 252.784,263.585 252.5,265.5C 239.5,265.5 226.5,265.5 213.5,265.5C 214.568,264.566 215.901,264.232 217.5,264.5C 228.833,264.5 240.167,264.5 251.5,264.5C 251.5,263.167 251.5,261.833 251.5,260.5 Z"/></g>
<g><path style="opacity:0.69" fill="#697ce6" d="M 314.5,261.5 C 318.167,261.5 321.833,261.5 325.5,261.5C 325.5,262.833 325.5,264.167 325.5,265.5C 322.5,265.5 319.5,265.5 316.5,265.5C 308.167,265.5 299.833,265.5 291.5,265.5C 291.842,264.662 292.508,264.328 293.5,264.5C 299.167,264.5 304.833,264.5 310.5,264.5C 313.572,264.817 316.572,264.484 319.5,263.5C 317.709,262.83 316.042,262.163 314.5,261.5 Z"/></g>
</svg>
